<svg xmlns="http://www.w3.org/2000/svg" viewBox="0 0 128 128" role="img" aria-labelledby="title desc">
  <title id="title">Acende PE</title>
  <desc id="desc">Símbolo circular com mosaico, estrela e raio central em dourado, terracota e offwhite.</desc>
  <rect width="128" height="128" rx="20" fill="#0D0D0D"/>

  <g fill="none" stroke-linecap="butt">
    <path d="M29 28a52 52 0 0 1 70 3" stroke="#F5F0E8" stroke-width="7" stroke-dasharray="5 5"/>
    <path d="M24 44a45 45 0 0 1 80 0" stroke="#B85C38" stroke-width="7" stroke-dasharray="8 6"/>
    <path d="M19 73a48 48 0 0 0 90 0" stroke="#B85C38" stroke-width="7" stroke-dasharray="6 5"/>
    <path d="M26 87a42 42 0 0 0 76 0" stroke="#F5F0E8" stroke-width="7" stroke-dasharray="5 5"/>
    <path d="M15 64h18M95 64h18" stroke="#F5F0E8" stroke-width="6" stroke-dasharray="5 5"/>
  </g>

  <g fill="none" stroke="#F2C94C" stroke-width="4" stroke-linecap="round">
    <path d="M64 31v25"/>
    <path d="M64 72v25"/>
    <path d="M31 64h25"/>
    <path d="M72 64h25"/>
    <path d="M42 42l17 17"/>
    <path d="M86 42 69 59"/>
    <path d="M42 86l17-17"/>
    <path d="M86 86 69 69"/>
    <path d="M53 34l8 22"/>
    <path d="M75 34l-8 22"/>
    <path d="M53 94l8-22"/>
    <path d="M75 94l-8-22"/>
  </g>

  <path d="M64 47 77 76H51Z" fill="#F2C94C"/>

  <path
    d="M28 18 32 34 45 24 37 38 54 41 37 45 45 59 32 49 28 65 24 49 11 59 19 45 2 41 19 38 11 24 24 34Z"
    fill="#D4A017"
    transform="translate(8 12) scale(.72)"
  />

  <g fill="#B85C38">
    <path d="M97 41c9 4 12 13 10 20-8-1-16-7-19-16 3-3 6-4 9-4Z"/>
    <path d="M22 70c8-1 15 3 19 10-7 5-17 5-24 0 0-4 2-7 5-10Z"/>
    <path d="M92 86c6 7 6 16 2 22-7-4-12-12-12-21 3-2 7-2 10-1Z"/>
  </g>
</svg>
